PathFileType	4	(X/Y/Z)	/Users/itak/Documents/Research/Walk-IL/dataset/trc/00489_00167.trc
DataRate	CameraRate	NumFrames	NumMarkers	Units	OrigDataRate	OrigDataStartFrame	OrigNumFrames
100.000000	100.000000	4	53	mm	100.000000	435	581
Frame#	Time	RPSI			LPSI			L3			STRN			T10			C7			CLAV			RBAK			LBAK			LSHO			LUPA			LAEL			LAOL			LWTS			LWPS			LFRA			LIFD			LHPS			LHTS			RSHO			RUPA			RAEL			RAOL			RWTS			RWPS			RFRA			RIFD			RHTS			RHPS			RBHD			LFHD			RFHD			LBHD			LHIP			RHIP			RASI			LASI			LKNE			LTHI			LANK			LTIP			LTOE			LMT1			LMT5			LHEE			RKNE			RTHI			RANK			RTIP			RTOE			RMT1			RMT5			RHEE			
		X1	Y1	Z1	X2	Y2	Z2	X3	Y3	Z3	X4	Y4	Z4	X5	Y5	Z5	X6	Y6	Z6	X7	Y7	Z7	X8	Y8	Z8	X9	Y9	Z9	X10	Y10	Z10	X11	Y11	Z11	X12	Y12	Z12	X13	Y13	Z13	X14	Y14	Z14	X15	Y15	Z15	X16	Y16	Z16	X17	Y17	Z17	X18	Y18	Z18	X19	Y19	Z19	X20	Y20	Z20	X21	Y21	Z21	X22	Y22	Z22	X23	Y23	Z23	X24	Y24	Z24	X25	Y25	Z25	X26	Y26	Z26	X27	Y27	Z27	X28	Y28	Z28	X29	Y29	Z29	X30	Y30	Z30	X31	Y31	Z31	X32	Y32	Z32	X33	Y33	Z33	X34	Y34	Z34	X35	Y35	Z35	X36	Y36	Z36	X37	Y37	Z37	X38	Y38	Z38	X39	Y39	Z39	X40	Y40	Z40	X41	Y41	Z41	X42	Y42	Z42	X43	Y43	Z43	X44	Y44	Z44	X45	Y45	Z45	X46	Y46	Z46	X47	Y47	Z47	X48	Y48	Z48	X49	Y49	Z49	X50	Y50	Z50	X51	Y51	Z51	X52	Y52	Z52	X53	Y53	Z53	

436	4.350000000000001	314.2587890625	928.3307495117188	-159.2806396484375	172.2377471923828	936.90478515625	-161.9396057128906	252.2398834228516	1032.40966796875	-174.7846374511719	245.4187774658203	1231.953735351562	-446.4347229003906	246.0580902099609	1156.538696289062	-160.1472015380859	255.8789520263672	1427.288330078125	-223.5058441162109	242.0093841552734	1344.4892578125	-408.8863525390625	350.8831481933594	1304.920166015625	-163.2243499755859	156.7589569091797	1378.56298828125	-190.8415374755859	77.42591094970703	1401.052856445312	-293.03662109375	-23.02112770080566	1285.184326171875	-281.8316040039062	-71.51046752929688	1076.145141601562	-295.3418273925781	-0.5898649096488953	1059.5244140625	-220.736572265625	-58.53079223632812	858.4112548828125	-350.9961242675781	-113.4381942749023	861.318603515625	-300.4088134765625	-92.55413055419922	989.1090698242188	-305.6225280761719	-93.00352478027344	701.6331787109375	-325.5102233886719	-127.0610961914062	785.1600341796875	-295.8633422851562	-82.79792785644531	773.6350708007812	-353.7708740234375	414.9099426269531	1397.15478515625	-291.1611022949219	491.1377868652344	1339.341796875	-272.1390991210938	571.3984985351562	1061.135375976562	-272.2689819335938	529.6761474609375	1039.754028320312	-222.8340301513672	544.1007080078125	854.26953125	-378.8141174316406	602.8414306640625	843.7543334960938	-313.8569946289062	586.3988037109375	1003.890319824219	-276.7982177734375	560.7265014648438	699.1851806640625	-381.9189758300781	562.4923706054688	758.9102783203125	-396.2355346679688	605.1704711914062	756.1566772460938	-331.5757446289062	334.1929626464844	1630.904663085938	-317.598388671875	168.8591766357422	1634.126342773438	-441.474609375	298.61669921875	1641.9765625	-450.3155212402344	159.6832733154297	1625.510498046875	-288.6608581542969	48.88965606689453	847.2268676757812	-297.8740234375	450.5984802246094	836.1602783203125	-288.9399108886719	385.8226013183594	887.374267578125	-386.0357055664062	128.8936462402344	878.55322265625	-396.0843505859375	65.69697570800781	430.0378112792969	-255.1054840087891	58.3725471496582	580.208251953125	-306.9451904296875	8.550937652587891	83.44009399414062	-3.960220813751221	33.12147521972656	293.9077758789062	-180.3722686767578	178.3805999755859	37.32319641113281	-170.8567199707031	160.7563171386719	60.74732208251953	-97.29541778564453	61.94894790649414	38.88094329833984	-140.0615692138672	51.43926620483398	117.4935073852539	53.02655410766602	442.3166809082031	471.7461547851562	-437.5273132324219	467.5817565917969	720.059326171875	-366.276611328125	471.824951171875	34.27255630493164	-431.9250793457031	459.973876953125	329.3174133300781	-460.7731628417969	415.4177856445312	50.82370376586914	-649.5072631835938	383.6540832519531	52.99144744873047	-582.778564453125	492.0004577636719	41.14657592773438	-564.2801513671875	427.4685974121094	29.79241561889648	-366.3305969238281	
437	4.36	320.3697814941406	929.399169921875	-166.0574188232422	178.3158264160156	938.11181640625	-167.0837707519531	258.7505798339844	1033.8544921875	-180.7794494628906	249.3096618652344	1233.483032226562	-452.1061096191406	253.2697601318359	1157.9521484375	-165.9314727783203	263.145263671875	1428.621215820312	-229.3361511230469	246.7052612304688	1346.052978515625	-414.5519409179688	358.6393737792969	1306.040283203125	-170.3865814208984	164.4220733642578	1380.332885742188	-195.4753570556641	83.96645355224609	1403.29931640625	-296.6996459960938	-17.13907432556152	1288.396850585938	-283.7579040527344	-66.88578033447266	1079.349243164062	-294.5127258300781	5.903971672058105	1062.504638671875	-221.7784271240234	-55.48365783691406	861.3867797851562	-350.6689453125	-109.7365951538086	864.4447631835938	-299.0710754394531	-88.54364013671875	992.3495483398438	-304.3616333007812	-89.03083801269531	704.6973266601562	-324.9390258789062	-122.7098083496094	788.0673828125	-293.9587707519531	-80.16431427001953	776.6463623046875	-353.3069152832031	421.2101440429688	1398.247802734375	-299.0618896484375	497.6006469726562	1340.41455078125	-281.0954284667969	576.9283447265625	1061.909423828125	-282.0596313476562	535.75341796875	1040.833129882812	-232.0312652587891	547.8690795898438	854.1822509765625	-387.0531005859375	607.434326171875	844.2089233398438	-322.8306579589844	591.7591552734375	1004.644897460938	-286.5101318359375	564.143798828125	699.0380859375	-388.7236938476562	565.9160766601562	758.580810546875	-403.7229919433594	609.38037109375	756.4638061523438	-339.5933227539062	340.7351989746094	1631.944458007812	-324.3370971679688	174.4935607910156	1635.389892578125	-447.0491027832031	304.1835632324219	1642.842041015625	-456.8179931640625	166.3659515380859	1627.149291992188	-293.9921875	53.07560348510742	848.4498291015625	-301.6309814453125	455.0870971679688	836.5882568359375	-296.9748229980469	389.4051208496094	887.87841796875	-393.2925415039062	132.6163635253906	880.12451171875	-400.8124694824219	66.96884918212891	430.6118774414062	-264.4719848632812	60.6849479675293	581.4004516601562	-314.698486328125	9.526532173156738	88.13731384277344	-6.532658576965332	33.59657669067383	295.990478515625	-186.9554443359375	177.9876861572266	37.33601379394531	-171.4903106689453	161.0704956054688	61.78247451782227	-99.09618377685547	62.06900405883789	38.82561874389648	-140.6288452148438	52.94657135009766	124.2602310180664	48.7544059753418	443.8156433105469	471.4125671386719	-443.0003662109375	470.8018798828125	720.0046997070312	-373.79638671875	471.4229431152344	34.67061614990234	-432.3052062988281	460.695556640625	328.6903686523438	-464.6855163574219	414.5683898925781	48.84761428833008	-650.1599731445312	383.0166931152344	52.55872344970703	-583.2427978515625	491.8115539550781	41.26838302612305	-564.7008056640625	427.32470703125	30.10495758056641	-366.5581970214844	
438	4.37	326.4984436035156	930.4994506835938	-172.7422943115234	184.4338989257812	939.24365234375	-172.0794525146484	265.3216857910156	1035.2568359375	-186.7299346923828	253.0735015869141	1234.950073242188	-457.7008666992188	260.5507507324219	1159.333374023438	-171.7252044677734	270.3800048828125	1429.934448242188	-235.1164855957031	251.3141937255859	1347.573852539062	-420.1602172851562	366.3778381347656	1307.113403320312	-177.5619201660156	172.1126708984375	1382.0517578125	-200.0032806396484	90.46215057373047	1405.501831054688	-300.2098999023438	-11.25524520874023	1291.55615234375	-285.559814453125	-62.21096801757812	1082.484008789062	-293.8002624511719	12.23731422424316	1065.386962890625	-222.846435546875	-52.08087158203125	864.3340454101562	-350.5416870117188	-105.9509124755859	867.4808349609375	-298.1480407714844	-84.46066284179688	995.529296875	-303.3047485351562	-84.59148406982422	707.677734375	-324.7631530761719	-117.9945831298828	790.7462768554688	-292.5536499023438	-77.16542816162109	779.674560546875	-353.2263793945312	427.4159851074219	1399.28955078125	-306.9472351074219	503.9552917480469	1341.456787109375	-290.0224609375	582.480224609375	1062.65625	-291.7400207519531	541.8880615234375	1041.857543945312	-241.1401062011719	551.6311645507812	854.2520751953125	-395.3868408203125	611.99755859375	844.67041015625	-331.9146118164062	597.1163330078125	1005.369995117188	-296.1768188476562	567.4437255859375	699.026123046875	-395.8038635253906	569.2633666992188	758.41064453125	-411.3966064453125	613.4861450195312	756.7942504882812	-347.8332824707031	347.2048034667969	1633.008666992188	-331.0704956054688	180.0262603759766	1636.59375	-452.5685119628906	309.6404113769531	1643.655639648438	-463.2923889160156	172.9714660644531	1628.810546875	-299.2390441894531	57.2178955078125	849.6090698242188	-305.2394714355469	459.5304870605469	836.9808959960938	-304.8571166992188	392.8822326660156	888.23681640625	-400.4247436523438	136.3214416503906	881.6586303710938	-405.3837890625	67.92391967773438	431.1817626953125	-274.3819580078125	62.69660949707031	582.5971069335938	-322.7634582519531	10.64795207977295	93.14523315429688	-9.508648872375488	33.94852828979492	298.1611633300781	-194.0430908203125	177.5182952880859	37.29745864868164	-172.1997222900391	161.4519500732422	62.91429901123047	-101.1077194213867	62.21470642089844	38.7435302734375	-141.2676544189453	54.62727355957031	131.3994750976562	43.8572883605957	445.3323669433594	470.9131774902344	-447.7193603515625	473.966796875	719.7915649414062	-380.8708190917969	471.0674438476562	34.96021270751953	-432.6257934570312	461.5104064941406	328.0268859863281	-468.0220947265625	413.9150390625	47.37290191650391	-650.6363525390625	382.5010070800781	52.30964279174805	-583.6124267578125	491.6608276367188	41.36834335327148	-565.0298461914062	427.2000732421875	30.34453201293945	-366.7327270507812	
439	4.38	332.5774230957031	931.6414794921875	-179.2807006835938	190.5289154052734	940.247314453125	-176.8814544677734	271.9136657714844	1036.61279296875	-192.6349334716797	256.7046508789062	1236.328125	-463.2201232910156	267.8708190917969	1160.668090820312	-177.5010070800781	277.5557861328125	1431.210571289062	-240.8533325195312	255.8250885009766	1349.015625	-425.7055358886719	374.0756530761719	1308.123413085938	-184.7383270263672	179.8177337646484	1383.692504882812	-204.4243774414062	96.89243316650391	1407.613159179688	-303.5634765625	-5.334014892578125	1294.570556640625	-287.1953735351562	-57.49372100830078	1085.496215820312	-293.2430725097656	18.38621711730957	1068.116577148438	-223.9412689208984	-48.34776306152344	867.1895141601562	-350.6614074707031	-102.097297668457	870.388671875	-297.6830444335938	-80.30838012695312	998.5965576171875	-302.4943237304688	-79.75529479980469	710.5324096679688	-325.0010375976562	-112.9928894042969	793.1788940429688	-291.7135314941406	-73.81459045410156	782.6616821289062	-353.5380554199219	433.5029602050781	1400.241943359375	-314.8166809082031	510.185302734375	1342.425537109375	-298.9209899902344	588.05078125	1063.346801757812	-301.3268737792969	548.0899658203125	1042.797241210938	-250.1677398681641	555.37353515625	854.44091796875	-403.8062744140625	616.5429077148438	845.105224609375	-341.1200256347656	602.4772338867188	1006.035705566406	-305.8108215332031	570.62109375	699.122314453125	-403.2079162597656	572.5282592773438	758.38720703125	-419.2909240722656	617.49609375	757.1134033203125	-356.3361511230469	353.5896606445312	1634.072509765625	-337.7839660644531	185.4452972412109	1637.722534179688	-458.0126342773438	314.9750061035156	1644.39990234375	-469.7230224609375	179.4997100830078	1630.463500976562	-304.3944702148438	61.40370941162109	850.6456909179688	-308.748291015625	463.89892578125	837.4082641601562	-312.537841796875	396.2298889160156	888.5228881835938	-407.3844909667969	139.9678649902344	883.1388549804688	-409.7786865234375	68.5826416015625	431.7454223632812	-284.8077087402344	64.40104675292969	583.7760620117188	-331.1127014160156	11.89698886871338	98.48355865478516	-12.93056678771973	34.22197341918945	300.3913879394531	-201.6492004394531	176.9814605712891	37.18473815917969	-173.0646057128906	161.9114837646484	64.192138671875	-103.4003143310547	62.40853500366211	38.6429443359375	-141.9896850585938	56.46381759643555	138.8817749023438	38.304443359375	446.9110717773438	470.3405456542969	-451.8096618652344	477.0768127441406	719.5337524414062	-387.5304260253906	470.7931823730469	35.14756774902344	-432.8726501464844	462.4373168945312	327.3601379394531	-470.8948669433594	413.4470520019531	46.35567474365234	-650.9540405273438	382.1254577636719	52.18586730957031	-583.8911743164062	491.5617065429688	41.4233283996582	-565.276123046875	427.1209411621094	30.51935195922852	-366.8519592285156	
